<?xml version="1.0" encoding="UTF-8" standalone="no"?>
<svg
   xmlns:dc="http://purl.org/dc/elements/1.1/"
   xmlns:cc="http://creativecommons.org/ns#"
   xmlns:rdf="http://www.w3.org/1999/02/22-rdf-syntax-ns#"
   xmlns:svg="http://www.w3.org/2000/svg"
   xmlns="http://www.w3.org/2000/svg"
   xmlns:sodipodi="http://sodipodi.sourceforge.net/DTD/sodipodi-0.dtd"
   xmlns:inkscape="http://www.inkscape.org/namespaces/inkscape"
   id="svg921"
   version="1.1"
   viewBox="0 0 12.7 12.7"
   height="48"
   width="48"
   sodipodi:docname="logo.svg"
   inkscape:version="0.92.5 (2060ec1f9f, 2020-04-08)">
  <sodipodi:namedview
     pagecolor="#ffffff"
     bordercolor="#666666"
     borderopacity="1"
     objecttolerance="10"
     gridtolerance="10"
     guidetolerance="10"
     inkscape:pageopacity="0"
     inkscape:pageshadow="2"
     inkscape:window-width="2156"
     inkscape:window-height="1273"
     id="namedview9"
     showgrid="false"
     inkscape:zoom="9.8333333"
     inkscape:cx="28.571949"
     inkscape:cy="5.2151369"
     inkscape:window-x="905"
     inkscape:window-y="433"
     inkscape:window-maximized="0"
     inkscape:current-layer="svg921" />
  <defs
     id="defs915" />
  <metadata
     id="metadata918">
    <rdf:RDF>
      <cc:Work
         rdf:about="">
        <dc:format>image/svg+xml</dc:format>
        <dc:type
           rdf:resource="http://purl.org/dc/dcmitype/StillImage" />
        <dc:title />
      </cc:Work>
    </rdf:RDF>
  </metadata>
  <rect
     style="opacity:1;fill:#ffffff;fill-opacity:1;stroke:none;stroke-width:7.9375;stroke-miterlimit:4;stroke-dasharray:none"
     id="rect819"
     width="12.7"
     height="12.7"
     x="-0.053813558"
     y="-0.026906786"
     rx="1.3229166"
     ry="1.3229166" />
  <g
     transform="translate(-9.0319127,-5.2727516)"
     id="layer1">
    <path
       id="path1132-3-29-8-8"
       style="font-style:normal;font-variant:normal;font-weight:bold;font-stretch:normal;font-size:10.58333302px;line-height:1.25;font-family:Ubuntu;-inkscape-font-specification:'Ubuntu Bold';letter-spacing:0px;word-spacing:0px;fill:#4e5b69;fill-opacity:1;stroke:none;stroke-width:0.26458332"
       d="m 15.24761,9.9996922 c 0,0.2681098 -0.0529,0.5256398 -0.15875,0.7725798 -0.10583,0.24695 -0.24342,0.48684 -0.41275,0.71967 -0.16933,0.22578 -0.35983,0.4445 -0.5715,0.65617 -0.21167,0.21166 -0.41981,0.41275 -0.62442,0.60325 -0.10583,0.0988 -0.22225,0.21166 -0.34925,0.33866 -0.11994,0.11995 -0.23636,0.24342 -0.34925,0.37042 -0.11289,0.127 -0.21519,0.24694 -0.30691,0.35983 -0.0847,0.10584 -0.13758,0.19403 -0.15875,0.26459 h 1.57692 0.78845 2.34025 l 0.008,1.32291 h -3.43726 -3.01238 c -0.0141,-0.0776 -0.0212,-0.17639 -0.0212,-0.29633 v -0.254 c 0,-0.33867 0.0529,-0.64911 0.15875,-0.93133 0.11289,-0.28223 0.25753,-0.54328 0.43392,-0.78317 0.17639,-0.24695 0.37394,-0.47625 0.59267,-0.68792 0.22577,-0.21166 0.44802,-0.42333 0.66675,-0.635 0.16933,-0.16227 0.32808,-0.31397 0.47625,-0.45508 0.14817,-0.14817 0.27869,-0.28928 0.39158,-0.42333 0.11289,-0.14112 0.20108,-0.2787 0.26458,-0.41275 0.0635,-0.14111 0.0952,-0.28223 0.0952,-0.42334 0,-0.3104398 -0.0882,-0.5291598 -0.26458,-0.6561598 -0.17639,-0.127 -0.39511,-0.1905 -0.65617,-0.1905 -0.1905,0 -0.37042,0.0318 -0.53975,0.0952 -0.16227,0.0564 -0.31397,0.127 -0.45508,0.21166 -0.13405,0.0776 -0.25047,0.15875 -0.34925,0.24342 -0.0988,0.0776 -0.17286,0.14111 -0.22225,0.1905 l -0.78317,-1.10067 c 0.31045,-0.28927 0.67028,-0.5256397 1.0795,-0.7090797 0.41628,-0.1905 0.86078,-0.285753 1.3335,-0.285753 0.43039,0 0.80081,0.0494 1.11125,0.148173 0.31045,0.0988 0.56445,0.23989 0.762,0.4233297 0.20461,0.17639 0.35278,0.39511 0.4445,0.65617 0.0988,0.254 0.14817,0.54327 0.14817,0.86783 z" />
    <path
       id="path1134-5-3-4-6"
       style="font-style:normal;font-variant:normal;font-weight:bold;font-stretch:normal;font-size:10.58333302px;line-height:1.25;font-family:Ubuntu;-inkscape-font-specification:'Ubuntu Bold';letter-spacing:0px;word-spacing:0px;fill:#4e5b69;fill-opacity:1;stroke:none;stroke-width:0.26458332"
       d="m 16.75043,9.5975222 c 0.20461,-0.0847 0.41628,-0.17991 0.635,-0.28575 0.22578,-0.11289 0.4445,-0.23283 0.65617,-0.35983 0.21167,-0.13406 0.41275,-0.27164 0.60325,-0.41275 0.19755,-0.1481697 0.37394,-0.3033897 0.52917,-0.4656697 h 1.10066 v 7.3342495 h -1.57691 v -5.28108 c -0.21167,0.14111 -0.44803,0.27164 -0.70909,0.39158 -0.26105,0.11289 -0.51505,0.21167 -0.762,0.29634 z" />
    <path
       transform="matrix(0.71370552,0,0,1,-94.358814,-128.43476)"
       d="m 157.46235,143.18639 -2.91734,1.68432 v -3.36865 z"
       id="path1760-8"
       style="font-style:normal;font-variant:normal;font-weight:normal;font-stretch:normal;font-size:10.58333302px;line-height:1.25;font-family:Ubuntu;-inkscape-font-specification:Ubuntu;letter-spacing:0px;word-spacing:0px;opacity:1;fill:#4e5b69;fill-opacity:1;stroke:none;stroke-width:0;stroke-miterlimit:4;stroke-dasharray:none;stroke-opacity:1" />
  </g>
</svg>
