<?xml version="1.0" encoding="UTF-8" standalone="no"?>
<!-- Created with Inkscape (http://www.inkscape.org/) -->

<svg
   width="13mm"
   height="13mm"
   version="1.1"
   viewBox="0 0 13 13"
   id="svg24"
   sodipodi:docname="zwanzigeins-favicon-rounded.svg"
   inkscape:version="1.1.2 (0a00cf5339, 2022-02-04)"
   xmlns:inkscape="http://www.inkscape.org/namespaces/inkscape"
   xmlns:sodipodi="http://sodipodi.sourceforge.net/DTD/sodipodi-0.dtd"
   xmlns="http://www.w3.org/2000/svg"
   xmlns:svg="http://www.w3.org/2000/svg">
  <defs
     id="defs28" />
  <sodipodi:namedview
     id="namedview26"
     pagecolor="#ffffff"
     bordercolor="#666666"
     borderopacity="1.0"
     inkscape:pageshadow="2"
     inkscape:pageopacity="0.0"
     inkscape:pagecheckerboard="0"
     inkscape:document-units="mm"
     showgrid="false"
     inkscape:zoom="8.883894"
     inkscape:cx="63.541956"
     inkscape:cy="49.077578"
     inkscape:window-width="2499"
     inkscape:window-height="1371"
     inkscape:window-x="656"
     inkscape:window-y="413"
     inkscape:window-maximized="0"
     inkscape:current-layer="g22" />
  <g
     transform="translate(-87.836 -79.986)"
     id="g22">
    <rect
       x="87.835999"
       y="79.986"
       width="13"
       height="13"
       fill="#1a1a1a"
       stroke-miterlimit="0"
       stroke-width="0"
       id="rect2"
       ry="1.2880229" />
    <g
       id="g1487"
       transform="translate(-0.14808204,-0.04815299)">
      <g
         transform="translate(-52.057,-91.559)"
         fill="#37c897"
         id="g20">
        <path
           d="m 146.73,178.52 -0.67645,0.67644 1.5798,1.5798 -1.5798,1.5792 0.67645,0.67644 2.2557,-2.2557 z m -4.9346,1.6418 c -0.0885,0.25509 -0.10697,0.4586 -0.10697,0.77463 v 0.25373 c 0,0.11994 0.007,0.21902 0.0212,0.29662 h 6.4497 l -0.008,-1.3229 h -4.7056 c -0.25333,0.003 -0.47113,0.003 -0.69092,-0.002 h -0.0289 z"
           fill="#2ecc70"
           stroke-width="0"
           id="path18" />
      </g>
      <g
         transform="translate(-38.089,-6.8711)"
         id="g16">
        <g
           transform="translate(-11.443,-84.379)"
           id="g14">
          <g
             fill="#ffffff"
             id="g10">
            <path
               transform="matrix(0.26458,0,0,0.26458,129.26,-336.37)"
               d="m 45.637,1927.7 c -1.7244,0.022 -3.3469,0.3826 -4.8711,1.0801 -1.5467,0.6933 -2.9067,1.5864 -4.0801,2.6797 l 2.959,4.1601 c 0.18667,-0.1867 0.46643,-0.4274 0.83984,-0.7207 0.37334,-0.32 0.81367,-0.6266 1.3203,-0.9199 0.53333,-0.32 1.1074,-0.5857 1.7207,-0.7988 0.63999,-0.2397 1.3191,-0.3614 2.0391,-0.3614 0.98668,0 1.8138,0.2407 2.4805,0.7207 0.66663,0.48 1,1.3072 1,2.4805 0,0.5333 -0.11938,1.0663 -0.35938,1.5996 -0.24,0.5067 -0.57333,1.0272 -1,1.5606 -0.42667,0.5066 -0.92046,1.0396 -1.4805,1.5996 -0.56001,0.5333 -1.1608,1.1074 -1.8008,1.7207 -0.8267,0.8 -1.6662,1.5984 -2.5195,2.3984 -0.8267,0.8 -1.5736,1.6682 -2.2402,2.6016 -0.46005,0.6256 -0.86322,1.2883 -1.209,1.9902 h 6.6836 c 0.21673,-0.2557 0.4449,-0.5181 0.6875,-0.791 0.42667,-0.48 0.867,-0.947 1.3203,-1.4004 0.48,-0.48 0.92032,-0.9059 1.3203,-1.2793 0.77333,-0.72 1.5594,-1.4813 2.3594,-2.2812 0.80001,-0.8001 1.5202,-1.6252 2.1602,-2.4786 0.63999,-0.8799 1.1606,-1.7873 1.5605,-2.7207 0.40006,-0.9333 0.59961,-1.9066 0.59961,-2.9199 h -0.002 c 0,-1.2267 -0.18713,-2.3193 -0.56055,-3.2793 -0.34666,-0.9867 -0.90636,-1.8138 -1.6797,-2.4805 -0.74665,-0.6933 -1.7075,-1.2261 -2.8809,-1.5996 -1.1733,-0.3733 -2.5725,-0.5605 -4.1992,-0.5605 -0.05583,0 -0.11234,-7e-4 -0.16797,0 z"
               id="path6" />
            <path
               d="m 145.35,175.37 c 0.20461,-0.0847 0.41628,-0.17991 0.635,-0.28575 0.22578,-0.11289 0.4445,-0.23283 0.65617,-0.35983 0.21167,-0.13406 0.41275,-0.27164 0.60325,-0.41275 0.19755,-0.14817 0.37394,-0.30339 0.52917,-0.46567 h 1.1007 v 7.3342 h -1.5769 v -5.2811 c -0.21167,0.14111 -0.44803,0.27164 -0.70909,0.39158 -0.26105,0.11289 -0.51505,0.21167 -0.762,0.29634 z"
               id="path8" />
          </g>
        </g>
      </g>
    </g>
  </g>
</svg>
