<?xml version="1.0" encoding="UTF-8" standalone="no"?>
<!-- Created with Inkscape (http://www.inkscape.org/) -->

<svg
   width="74.798286mm"
   height="10.096502mm"
   viewBox="0 0 74.798286 10.096502"
   version="1.1"
   id="svg2535"
   xmlns="http://www.w3.org/2000/svg"
   xmlns:svg="http://www.w3.org/2000/svg">
  <defs
     id="defs2532" />
  <g
     id="layer1"
     transform="translate(-216.02557,-329.4112)">
    <g
       id="g35900-6-6-3"
       transform="translate(88.499005,208.29355)">
      <g
         id="g70291-8-9-6"
         transform="translate(0,32.408416)"
         style="font-style:normal;font-variant:normal;font-weight:normal;font-stretch:normal;font-size:10.5833px;line-height:1.25;font-family:Ubuntu;-inkscape-font-specification:Ubuntu;letter-spacing:0px;word-spacing:0px;fill:#000000;fill-opacity:1;stroke:none;stroke-width:0.264583">
        <g
           id="g66476-9-2-7"
           transform="translate(-5.6198411,-4.7053107)">
          <path
             d="m 152.28697,97.012881 q -0.1905,0.211667 -0.51858,0.5715 -0.3175,0.359834 -0.68792,0.79375 -0.37042,0.433917 -0.75142,0.910167 -0.37041,0.47625 -0.67733,0.920752 h 2.68817 v 1.31233 h -4.60375 v -0.93133 q 0.22225,-0.381 0.52916,-0.814919 0.3175,-0.4445 0.65617,-0.889 0.34925,-0.4445 0.68792,-0.85725 0.33866,-0.423333 0.62441,-0.762 h -2.37066 v -1.312333 h 4.42383 z"
             style="font-style:normal;font-variant:normal;font-weight:bold;font-stretch:normal;font-size:10.5833px;line-height:1.25;font-family:Ubuntu;-inkscape-font-specification:'Ubuntu Bold';letter-spacing:0px;word-spacing:0px;fill:#ffffff;fill-opacity:1;stroke:none;stroke-width:0.264583"
             id="path1136-2-4-3-3-2-2-2-5" />
          <path
             d="m 156.98594,98.325215 q -0.21167,0.804333 -0.45509,1.598083 -0.23283,0.793752 -0.49741,1.598082 h -1.22767 q -0.1905,-0.4445 -0.41275,-1.05833 -0.22225,-0.613835 -0.46566,-1.333502 -0.23284,-0.73025 -0.48684,-1.534583 -0.24341,-0.814917 -0.47625,-1.640417 h 1.66158 q 0.0847,0.381 0.17992,0.836083 0.10583,0.4445 0.21167,0.92075 0.11641,0.47625 0.23283,0.963084 0.127,0.47625 0.254,0.92075 0.13758,-0.465667 0.26458,-0.9525 0.13759,-0.486834 0.254,-0.9525 0.127,-0.47625 0.23284,-0.910167 0.11641,-0.4445 0.20108,-0.8255 h 1.143 q 0.0847,0.381 0.1905,0.8255 0.10583,0.433917 0.22225,0.910167 0.11642,0.465666 0.24342,0.9525 0.127,0.486833 0.26458,0.9525 0.127,-0.4445 0.254,-0.92075 0.127,-0.486834 0.23283,-0.963084 0.11642,-0.47625 0.21167,-0.92075 0.10583,-0.455083 0.1905,-0.836083 h 1.64042 q -0.23284,0.8255 -0.48684,1.640417 -0.24341,0.804333 -0.48683,1.534583 -0.23283,0.719667 -0.46567,1.333502 -0.22225,0.61383 -0.41275,1.05833 h -1.22766 q -0.26459,-0.80433 -0.51859,-1.598082 -0.254,-0.79375 -0.46566,-1.598083 z"
             style="font-style:normal;font-variant:normal;font-weight:bold;font-stretch:normal;font-size:10.5833px;line-height:1.25;font-family:Ubuntu;-inkscape-font-specification:'Ubuntu Bold';letter-spacing:0px;word-spacing:0px;fill:#ffffff;fill-opacity:1;stroke:none;stroke-width:0.264583"
             id="path1138-0-5-6-6-8-6-4-3" />
          <path
             d="m 163.918,100.42072 q 0.23284,0 0.4445,-0.0106 0.21167,-0.0106 0.33867,-0.0317 v -1.19591 q -0.0953,-0.02117 -0.28575,-0.04233 -0.1905,-0.02117 -0.34925,-0.02117 -0.22225,0 -0.42333,0.03175 -0.1905,0.02117 -0.33867,0.09525 -0.14817,0.07408 -0.23283,0.201082 -0.0847,0.127 -0.0847,0.3175 0,0.370418 0.24342,0.518578 0.254,0.13759 0.68791,0.13759 z m -0.127,-4.614338 q 0.6985,0 1.16417,0.15875 0.46567,0.158749 0.74083,0.455083 0.28575,0.296333 0.40217,0.719666 0.11642,0.423334 0.11642,0.941917 v 3.280832 q -0.33867,0.0741 -0.94192,0.16934 -0.60325,0.10583 -1.4605,0.10583 -0.53975,0 -0.98425,-0.0952 -0.43392,-0.0953 -0.75142,-0.30692 -0.3175,-0.22225 -0.48683,-0.5715 -0.16933,-0.34925 -0.16933,-0.857249 0,-0.486833 0.1905,-0.8255 0.20108,-0.338666 0.52916,-0.53975 0.32809,-0.201083 0.75142,-0.28575 0.42333,-0.09525 0.87842,-0.09525 0.30691,0 0.53975,0.03175 0.24341,0.02117 0.39158,0.0635 v -0.148166 q 0,-0.402167 -0.24342,-0.645584 -0.24341,-0.243416 -0.84666,-0.243416 -0.40217,0 -0.79375,0.0635 -0.39159,0.05292 -0.67734,0.15875 l -0.20108,-1.27 q 0.13758,-0.04233 0.33867,-0.08467 0.21166,-0.05292 0.45508,-0.08467 0.24342,-0.04233 0.508,-0.0635 0.27517,-0.03175 0.55033,-0.03175 z"
             style="font-style:normal;font-variant:normal;font-weight:bold;font-stretch:normal;font-size:10.5833px;line-height:1.25;font-family:Ubuntu;-inkscape-font-specification:'Ubuntu Bold';letter-spacing:0px;word-spacing:0px;fill:#ffffff;fill-opacity:1;stroke:none;stroke-width:0.264583"
             id="path1140-6-2-7-0-9-6-7-5" />
          <path
             d="m 167.64333,96.145048 q 0.40217,-0.116416 1.03717,-0.211666 0.635,-0.105834 1.3335,-0.105834 0.70908,0 1.17475,0.1905 0.47625,0.179917 0.75141,0.518583 0.27517,0.338667 0.39159,0.804334 0.11641,0.465666 0.11641,1.037166 v 3.143249 h -1.57691 v -2.952749 q 0,-0.762 -0.20109,-1.0795 -0.20108,-0.3175 -0.75141,-0.3175 -0.16934,0 -0.35984,0.02117 -0.1905,0.01058 -0.33866,0.03175 v 4.296839 h -1.57692 z"
             style="font-style:normal;font-variant:normal;font-weight:bold;font-stretch:normal;font-size:10.5833px;line-height:1.25;font-family:Ubuntu;-inkscape-font-specification:'Ubuntu Bold';letter-spacing:0px;word-spacing:0px;fill:#ffffff;fill-opacity:1;stroke:none;stroke-width:0.264583"
             id="path1142-1-5-5-6-7-4-7-6" />
          <path
             d="m 178.05732,97.012881 q -0.1905,0.211667 -0.51858,0.5715 -0.3175,0.359834 -0.68792,0.79375 -0.37042,0.433917 -0.75142,0.910167 -0.37041,0.47625 -0.67733,0.920752 h 2.68817 v 1.31233 h -4.60375 v -0.93133 q 0.22225,-0.381 0.52916,-0.814919 0.3175,-0.4445 0.65617,-0.889 0.34925,-0.4445 0.68792,-0.85725 0.33866,-0.423333 0.62441,-0.762 h -2.37066 v -1.312333 h 4.42383 z"
             style="font-style:normal;font-variant:normal;font-weight:bold;font-stretch:normal;font-size:10.5833px;line-height:1.25;font-family:Ubuntu;-inkscape-font-specification:'Ubuntu Bold';letter-spacing:0px;word-spacing:0px;fill:#ffffff;fill-opacity:1;stroke:none;stroke-width:0.264583"
             id="path1144-5-4-3-2-3-9-5-2" />
          <path
             d="m 180.74547,101.52138 h -1.57692 v -5.566832 h 1.57692 z m 0.14816,-7.175498 q 0,0.433916 -0.28575,0.687916 -0.27516,0.243417 -0.65616,0.243417 -0.381,0 -0.66675,-0.243417 -0.27517,-0.254 -0.27517,-0.687916 0,-0.433917 0.27517,-0.677334 0.28575,-0.254 0.66675,-0.254 0.381,0 0.65616,0.254 0.28575,0.243417 0.28575,0.677334 z"
             style="font-style:normal;font-variant:normal;font-weight:bold;font-stretch:normal;font-size:10.5833px;line-height:1.25;font-family:Ubuntu;-inkscape-font-specification:'Ubuntu Bold';letter-spacing:0px;word-spacing:0px;fill:#ffffff;fill-opacity:1;stroke:none;stroke-width:0.264583"
             id="path1146-5-7-5-6-6-5-4-9" />
          <path
             d="m 183.57121,98.558048 q 0,1.322917 1.06892,1.322917 0.24341,0 0.45508,-0.0635 0.21167,-0.0635 0.35983,-0.148167 v -2.518833 q -0.11641,-0.02117 -0.27516,-0.03175 -0.15875,-0.02117 -0.37042,-0.02117 -0.62442,0 -0.93133,0.41275 -0.30692,0.41275 -0.30692,1.04775 z m 3.46075,2.264832 q 0,1.36525 -0.6985,2.02142 -0.68792,0.66675 -2.13783,0.66675 -0.508,0 -1.016,-0.0952 -0.508,-0.0847 -0.94192,-0.23284 l 0.27517,-1.32291 q 0.37041,0.14816 0.77258,0.23283 0.41275,0.0847 0.93133,0.0847 0.67734,0 0.9525,-0.29633 0.28575,-0.29634 0.28575,-0.762 v -0.20109 q -0.254,0.11642 -0.52916,0.17992 -0.26459,0.0529 -0.58209,0.0529 -1.15358,0 -1.76741,-0.67733 -0.61384,-0.687919 -0.61384,-1.915586 0,-0.613833 0.1905,-1.11125 0.1905,-0.508 0.55034,-0.867833 0.37041,-0.359833 0.89958,-0.550333 0.52917,-0.201084 1.19592,-0.201084 0.28575,0 0.58208,0.03175 0.30692,0.02117 0.60325,0.0635 0.29633,0.04233 0.56092,0.105834 0.27516,0.05292 0.48683,0.116416 z"
             style="font-style:normal;font-variant:normal;font-weight:bold;font-stretch:normal;font-size:10.5833px;line-height:1.25;font-family:Ubuntu;-inkscape-font-specification:'Ubuntu Bold';letter-spacing:0px;word-spacing:0px;fill:#ffffff;fill-opacity:1;stroke:none;stroke-width:0.264583"
             id="path1148-4-4-6-1-1-04-8-1" />
          <path
             d="m 188.24904,98.780298 q 0,-0.740833 0.22225,-1.291167 0.23284,-0.560916 0.60325,-0.931333 0.37042,-0.370417 0.84667,-0.560916 0.48683,-0.1905 0.99483,-0.1905 1.18534,0 1.87325,0.730249 0.68792,0.719667 0.68792,2.12725 0,0.137584 -0.0106,0.306917 -0.0106,0.15875 -0.0212,0.28575 h -3.57717 q 0.0529,0.486833 0.45509,0.772582 0.40216,0.28575 1.0795,0.28575 0.43391,0 0.84666,-0.0741 0.42334,-0.0847 0.68793,-0.20108 l 0.21166,1.28058 q -0.127,0.0635 -0.33866,0.127 -0.21168,0.0635 -0.47625,0.10583 -0.254,0.0529 -0.55034,0.0847 -0.29634,0.0318 -0.59266,0.0318 -0.75143,0 -1.31234,-0.22225 -0.55034,-0.22225 -0.92075,-0.60325 -0.35984,-0.39158 -0.53975,-0.920746 -0.16934,-0.529167 -0.16934,-1.143 z m 3.70417,-0.60325 q -0.0106,-0.201083 -0.0741,-0.391583 -0.0529,-0.1905 -0.17992,-0.338667 -0.11641,-0.148167 -0.30691,-0.243417 -0.17992,-0.09525 -0.45509,-0.09525 -0.26458,0 -0.45508,0.09525 -0.1905,0.08467 -0.3175,0.232834 -0.127,0.148166 -0.20108,0.34925 -0.0635,0.1905 -0.0952,0.391583 z"
             style="font-style:normal;font-variant:normal;font-weight:bold;font-stretch:normal;font-size:10.5833px;line-height:1.25;font-family:Ubuntu;-inkscape-font-specification:'Ubuntu Bold';letter-spacing:0px;word-spacing:0px;fill:#2ecc70;fill-opacity:1;stroke:none;stroke-width:0.264583"
             id="path1150-7-4-2-8-2-8-1-2" />
          <path
             d="m 196.2712,101.52138 h -1.57691 v -5.566832 h 1.57691 z m 0.14817,-7.175498 q 0,0.433916 -0.28575,0.687916 -0.27517,0.243417 -0.65617,0.243417 -0.381,0 -0.66675,-0.243417 -0.27516,-0.254 -0.27516,-0.687916 0,-0.433917 0.27516,-0.677334 0.28575,-0.254 0.66675,-0.254 0.381,0 0.65617,0.254 0.28575,0.243417 0.28575,0.677334 z"
             style="font-style:normal;font-variant:normal;font-weight:bold;font-stretch:normal;font-size:10.5833px;line-height:1.25;font-family:Ubuntu;-inkscape-font-specification:'Ubuntu Bold';letter-spacing:0px;word-spacing:0px;fill:#2ecc70;fill-opacity:1;stroke:none;stroke-width:0.264583"
             id="path1152-6-3-9-7-9-7-2-7" />
          <path
             d="m 197.75286,96.145048 q 0.40218,-0.116416 1.03718,-0.211666 0.635,-0.105834 1.3335,-0.105834 0.70907,0 1.17475,0.1905 0.47625,0.179917 0.75141,0.518583 0.27516,0.338667 0.39159,0.804334 0.11641,0.465666 0.11641,1.037166 v 3.143249 h -1.57691 v -2.952749 q 0,-0.762 -0.20109,-1.0795 -0.20109,-0.3175 -0.75141,-0.3175 -0.16934,0 -0.35984,0.02117 -0.1905,0.01058 -0.33866,0.03175 v 4.296839 h -1.57693 z"
             style="font-style:normal;font-variant:normal;font-weight:bold;font-stretch:normal;font-size:10.5833px;line-height:1.25;font-family:Ubuntu;-inkscape-font-specification:'Ubuntu Bold';letter-spacing:0px;word-spacing:0px;fill:#2ecc70;fill-opacity:1;stroke:none;stroke-width:0.264583"
             id="path1154-5-0-1-9-3-1-8-0" />
          <path
             d="m 205.58452,100.38897 q 0.43392,0 0.61384,-0.0847 0.17991,-0.0847 0.17991,-0.328078 0,-0.1905 -0.23283,-0.328084 -0.23283,-0.148166 -0.70908,-0.328083 -0.37042,-0.137583 -0.67734,-0.28575 -0.29633,-0.148167 -0.508,-0.34925 -0.21166,-0.211667 -0.32808,-0.497417 -0.11642,-0.28575 -0.11642,-0.687916 0,-0.783167 0.58209,-1.23825 0.58208,-0.455083 1.59808,-0.455083 0.508,0 0.97367,0.09525 0.46566,0.08467 0.74083,0.190499 l -0.27517,1.227667 q -0.27516,-0.09525 -0.60325,-0.169333 -0.3175,-0.07408 -0.71966,-0.07408 -0.74084,0 -0.74084,0.41275 0,0.09525 0.0318,0.169334 0.0317,0.07408 0.127,0.148166 0.0952,0.0635 0.254,0.148167 0.16934,0.07408 0.42334,0.169333 0.51858,0.1905 0.85725,0.381 0.33866,0.179917 0.52916,0.402167 0.20109,0.211667 0.27517,0.47625 0.0847,0.264583 0.0847,0.613833 0,0.825498 -0.62442,1.248838 -0.61383,0.42333 -1.74625,0.42333 -0.74083,0 -1.23825,-0.127 -0.48683,-0.127 -0.67733,-0.21167 l 0.26458,-1.28058 q 0.40217,0.15875 0.8255,0.254 0.42333,0.0847 0.83608,0.0847 z"
             style="font-style:normal;font-variant:normal;font-weight:bold;font-stretch:normal;font-size:10.5833px;line-height:1.25;font-family:Ubuntu;-inkscape-font-specification:'Ubuntu Bold';letter-spacing:0px;word-spacing:0px;fill:#2ecc70;fill-opacity:1;stroke:none;stroke-width:0.264583"
             id="path1156-6-7-2-2-1-7-9-9" />
        </g>
        <g
           id="g65738-7-2-3-3"
           transform="translate(-11.44287,-84.379351)"
           style="font-style:normal;font-variant:normal;font-weight:normal;font-stretch:normal;font-size:10.5833px;line-height:1.25;font-family:Ubuntu;-inkscape-font-specification:Ubuntu;letter-spacing:0px;word-spacing:0px;fill:#4e5b69;fill-opacity:1;stroke:none;stroke-width:0.264583">
          <path
             id="path1132-3-29-5-72-6-6"
             style="font-style:normal;font-variant:normal;font-weight:bold;font-stretch:normal;font-size:10.5833px;line-height:1.25;font-family:Ubuntu;-inkscape-font-specification:'Ubuntu Bold';letter-spacing:0px;word-spacing:0px;fill:#ffffff;fill-opacity:1;stroke:none;stroke-width:0.999999"
             d="m 45.636719,1927.7461 c -1.724368,0.022 -3.346919,0.3826 -4.871094,1.0801 -1.546658,0.6933 -2.906724,1.5864 -4.080078,2.6797 l 2.958984,4.1601 c 0.186671,-0.1867 0.466427,-0.4274 0.839844,-0.7207 0.373342,-0.32 0.813667,-0.6266 1.320313,-0.9199 0.533329,-0.32 1.107399,-0.5857 1.720703,-0.7988 0.639987,-0.2397 1.319062,-0.3614 2.039062,-0.3614 0.986684,0 1.813798,0.2407 2.480469,0.7207 0.666633,0.48 1,1.3072 1,2.4805 0,0.5333 -0.119375,1.0663 -0.359375,1.5996 -0.24,0.5067 -0.573329,1.0272 -1,1.5606 -0.426671,0.5066 -0.920456,1.0396 -1.480469,1.5996 -0.560012,0.5333 -1.160794,1.1074 -1.800781,1.7207 -0.826696,0.8 -1.666227,1.5984 -2.519531,2.3984 -0.826696,0.8 -1.573564,1.6682 -2.240235,2.6016 -0.46005,0.6256 -0.863221,1.2883 -1.208984,1.9902 h 6.683594 c 0.216726,-0.2557 0.444901,-0.5181 0.6875,-0.791 0.42667,-0.48 0.866996,-0.947 1.320312,-1.4004 0.48,-0.48 0.920325,-0.9059 1.320313,-1.2793 0.773329,-0.72 1.559362,-1.4813 2.359375,-2.2812 0.800012,-0.8001 1.520168,-1.6252 2.160156,-2.4786 0.639987,-0.8799 1.160559,-1.7873 1.560547,-2.7207 0.400063,-0.9333 0.599609,-1.9066 0.599609,-2.9199 h -0.002 c 0,-1.2267 -0.18713,-2.3193 -0.560547,-3.2793 -0.346658,-0.9867 -0.906358,-1.8138 -1.679687,-2.4805 -0.746646,-0.6933 -1.707505,-1.2261 -2.88086,-1.5996 -1.173316,-0.3733 -2.572548,-0.5605 -4.199218,-0.5605 -0.05583,0 -0.112344,-7e-4 -0.167969,0 z m -7.828125,23.3457 c -0.269096,0.9063 -0.404297,1.8838 -0.404297,2.9336 v 0.9609 c 0,0.4533 0.02679,0.8259 0.08008,1.1192 H 48.871096 61.86133 l -0.0293,-5 h -8.845703 -2.980469 -5.958984 c 7.57e-4,0 0.0012,-0.01 0.002,-0.01 H 37.80864 Z"
             transform="matrix(0.26458333,0,0,0.26458333,129.26305,-336.37381)" />
          <path
             d="m 145.35142,175.369 c 0.20461,-0.0847 0.41628,-0.17991 0.635,-0.28575 0.22578,-0.11289 0.4445,-0.23283 0.65617,-0.35983 0.21167,-0.13406 0.41275,-0.27164 0.60325,-0.41275 0.19755,-0.14817 0.37394,-0.30339 0.52917,-0.46567 h 1.10066 v 7.33425 h -1.57691 v -5.28108 c -0.21167,0.14111 -0.44803,0.27164 -0.70909,0.39158 -0.26105,0.11289 -0.51505,0.21167 -0.762,0.29634 z"
             style="font-style:normal;font-variant:normal;font-weight:bold;font-stretch:normal;font-size:10.5833px;line-height:1.25;font-family:Ubuntu;-inkscape-font-specification:'Ubuntu Bold';letter-spacing:0px;word-spacing:0px;fill:#ffffff;fill-opacity:1;stroke:none;stroke-width:0.264583"
             id="path1134-5-3-9-2-8-0" />
          <path
             style="opacity:1;fill:#4e5b69;fill-opacity:1;stroke:#214478;stroke-width:0;stroke-miterlimit:4;stroke-dasharray:none;stroke-opacity:1"
             d="m 144.20124,178.21253 -0.67645,0.67644 1.57975,1.57975 -1.57975,1.57924 0.67645,0.67644 2.25567,-2.25568 z"
             id="rect1707-2-6-0-6" />
        </g>
      </g>
      <g
         id="g65738-7-0-1-2-2"
         transform="translate(-13.968623,-52.279617)"
         style="font-style:normal;font-variant:normal;font-weight:normal;font-stretch:normal;font-size:10.5833px;line-height:1.25;font-family:Ubuntu;-inkscape-font-specification:Ubuntu;letter-spacing:0px;word-spacing:0px;fill:#37c897;fill-opacity:1;stroke:none;stroke-width:0.264583">
        <path
           id="path1132-3-29-5-2-0-1-6"
           style="font-style:normal;font-variant:normal;font-weight:bold;font-stretch:normal;font-size:10.5833px;line-height:1.25;font-family:Ubuntu;-inkscape-font-specification:'Ubuntu Bold';letter-spacing:0px;word-spacing:0px;fill:#2ecc70;fill-opacity:1;stroke:none;stroke-width:0.999999"
           d="m 476.84375,517.87891 c -0.3344,0.96411 -0.4043,1.73329 -0.4043,2.92773 v 0.95898 c 0,0.45332 0.0268,0.82781 0.0801,1.1211 h 11.38672 12.99023 l -0.0293,-5 h -8.84571 -2.98046 -5.95899 c -0.95745,0.01 -1.78064,0.0111 -2.61133,-0.008 h -0.10937 z"
           transform="matrix(0.26458333,0,0,0.26458333,15.627442,43.140855)" />
        <path
           style="opacity:1;fill:#2ecc70;fill-opacity:1;stroke:#214478;stroke-width:0;stroke-miterlimit:4;stroke-dasharray:none;stroke-opacity:1"
           d="m 146.72699,178.52121 -0.67645,0.67644 1.57975,1.57975 -1.57975,1.57924 0.67645,0.67644 2.25567,-2.25568 z"
           id="rect1707-2-7-6-0-1" />
      </g>
    </g>
  </g>
</svg>
