<?xml version="1.0" encoding="UTF-8"?>
<svg width="24" height="24" version="1.1" viewBox="0 0 24 24" xmlns="http://www.w3.org/2000/svg">
 <path d="m5 1v4h-4v2h4v4h2v-4h4v-2h-4v-4h-2z" stroke-miterlimit="0" stroke-width="0"/>
 <path transform="rotate(90)" d="m5-23h2v10h-2z" stroke-miterlimit="0" stroke-width="0"/>
 <g transform="rotate(45 -8.1066 12.086)">
  <path transform="rotate(-45 -8.1066 12.086)" d="m3.3438 13.516-1.4141 1.4141 2.8281 2.8281-2.8281 2.8281 1.4141 1.4141 2.8281-2.8281 2.8281 2.8281 1.4141-1.4141-2.8281-2.8281 2.8281-2.8281-1.4141-1.4141-2.8281 2.8281-2.8281-2.8281z" stroke-miterlimit="0" stroke-width="0"/>
 </g>
 <path d="m18 14a1 1 0 0 0-1 1 1 1 0 0 0 1 1 1 1 0 0 0 1-1 1 1 0 0 0-1-1zm-5 3v2h10v-2h-10zm5 3a1 1 0 0 0-1 1 1 1 0 0 0 1 1 1 1 0 0 0 1-1 1 1 0 0 0-1-1z" stroke-miterlimit="0" stroke-width="0"/>
</svg>
