<?xml version="1.0" encoding="UTF-8" standalone="no"?>
<svg
   version="1.1"
   width="24"
   height="24"
   viewBox="0 0 24 24"
   id="svg4"
   sodipodi:docname="web.svg"
   inkscape:version="1.1 (1:1.1+202105261517+ce6663b3b7)"
   xmlns:inkscape="http://www.inkscape.org/namespaces/inkscape"
   xmlns:sodipodi="http://sodipodi.sourceforge.net/DTD/sodipodi-0.dtd"
   xmlns="http://www.w3.org/2000/svg"
   xmlns:svg="http://www.w3.org/2000/svg">
  <defs
     id="defs8" />
  <sodipodi:namedview
     id="namedview6"
     pagecolor="#ffffff"
     bordercolor="#666666"
     borderopacity="1.0"
     inkscape:pageshadow="2"
     inkscape:pageopacity="0.0"
     inkscape:pagecheckerboard="0"
     showgrid="false"
     inkscape:zoom="91.570328"
     inkscape:cx="10.642094"
     inkscape:cy="14.677243"
     inkscape:window-width="3840"
     inkscape:window-height="2133"
     inkscape:window-x="0"
     inkscape:window-y="27"
     inkscape:window-maximized="1"
     inkscape:current-layer="svg4" />
  <path
     d="m 16.36,14 c 0.08,-0.66 0.14,-1.32 0.14,-2 0,-0.68 -0.06,-1.34 -0.14,-2 h 3.38 c 0.16,0.64 0.26,1.31 0.26,2 0,0.69 -0.1,1.36 -0.26,2 z m -1.77,5.56 c 0.6,-1.11 1.06,-2.31 1.38,-3.56 h 2.95 c -0.96,1.65 -2.49,2.93 -4.33,3.56 M 14.34,14 H 9.66 C 9.56,13.34 9.5,12.68 9.5,12 c 0,-0.68 0.06,-1.35 0.16,-2 h 4.68 c 0.09,0.65 0.16,1.32 0.16,2 0,0.68 -0.07,1.34 -0.16,2 M 12,19.96 C 11.17,18.76 10.5,17.43 10.09,16 h 3.82 C 13.5,17.43 12.83,18.76 12,19.96 M 8,8 H 5.08 C 6.03,6.34 7.57,5.06 9.4,4.44 8.8,5.55 8.35,6.75 8,8 M 5.08,16 H 8 c 0.35,1.25 0.8,2.45 1.4,3.56 C 7.57,18.93 6.03,17.65 5.08,16 M 4.26,14 C 4.1,13.36 4,12.69 4,12 4,11.31 4.1,10.64 4.26,10 h 3.38 c -0.08,0.66 -0.14,1.32 -0.14,2 0,0.68 0.06,1.34 0.14,2 z M 12,4.03 c 0.83,1.2 1.5,2.54 1.91,3.97 H 10.09 C 10.5,6.57 11.17,5.23 12,4.03 M 18.92,8 H 15.97 C 15.65,6.75 15.19,5.55 14.59,4.44 16.43,5.07 17.96,6.34 18.92,8 M 12,2 C 6.47,2 2,6.5 2,12 2,17.522847 6.4771525,22 12,22 17.522847,22 22,17.522847 22,12 22,6.4771525 17.522847,2 12,2 Z"
     id="path2"
     sodipodi:nodetypes="csccsccccccccsccsccccccccccccccsccsccccccccccsssss" />
</svg>
